# xmcd
#
# Track frame offsets:
#	150
#	14042
#	31717
#	49698
#	68399
#	85045
#	103902
#	120458
#	134914
#	151854
#	170684
#	185230
#	200487
#	215774
#	229522
#
# Disc length: 3336 seconds
#
# Revision: 1
# Processed by: cddbd v1.5.2PL0 Copyright (c) Steve Scherf et al.
# Submitted via: audiograbber 1.83.01
#
DISCID=d10d060f
DTITLE=Varioud - CB60422
DYEAR=1900
DGENRE=
TTITLE0=George Strait - Twang
TTITLE1=Carrie Underwood - Cowboy Casanova
TTITLE2=Billy Currington - That's How Country Boys Roll
TTITLE3=Lady Antebellum - Need You Now
TTITLE4=Chris Young - The Man I Want To Be
TTITLE5=Tim McGraw - Southern Voice
TTITLE6=Kellie Pickler - Didn't You Know How Much I Loved You
TTITLE7=Joe Nichols - Gimmie That Girl
TTITLE8=Gloriana - How Far Do You Wanna Go
TTITLE9=Jason Aldean - Truth, The
TTITLE10=Steel Magnolia - Keep On Loving You
TTITLE11=Josh Tompson - Beer On The Table
TTITLE12=Gretchen Wilson - Work Hard, Play Harder
TTITLE13=Easton Corbin - A Little More Country Than That
TTITLE14=Taylor Swift - You're Not Sorry
EXTD=
EXTT0=
EXTT1=
EXTT2=
EXTT3=
EXTT4=
EXTT5=
EXTT6=
EXTT7=
EXTT8=
EXTT9=
EXTT10=
EXTT11=
EXTT12=
EXTT13=
EXTT14=
PLAYORDER=
